# Tiled2Unity generated file. Do not modify by hand.
# Wavefront file for 'cave-001_mesh_0002.obj'

# Vertices (Count = 32)
v -112000 -128000 0
v -128000 -128000 0
v -128000 -112000 0
v -112000 -112000 0
v -79999.99 -144000 0
v -95999.99 -144000 0
v -95999.99 -128000 0
v -79999.99 -128000 0
v -432000 -176000 0
v -448000 -176000 0
v -448000 -160000 0
v -432000 -160000 0
v -368000 -224000 0
v -384000 -224000 0
v -384000 -208000 0
v -368000 -208000 0
v -432000 -224000 0
v -448000 -224000 0
v -448000 -208000 0
v -432000 -208000 0
v -496000 -224000 0
v -512000 -224000 0
v -512000 -208000 0
v -496000 -208000 0
v -512000 -224000 0
v -527999.9 -224000 0
v -527999.9 -208000 0
v -512000 -208000 0
v -480000 -256000 0
v -496000 -256000 0
v -496000 -240000 0
v -480000 -240000 0

# Texture cooridinates (Count = 6)
vt 0.15 0.65
vt 0.2 0.65
vt 0.2 0.7
vt 0.15 0.7
vt 0.25 0.65
vt 0.25 0.7

# Normal
vn 0 0 -1

# Mesh description
g cave-001_mesh_0002

# Faces
f 1/1/1 2/2/1 3/3/1 4/4/1
f 5/2/1 6/5/1 7/6/1 8/3/1
f 9/1/1 10/2/1 11/3/1 12/4/1
f 13/1/1 14/2/1 15/3/1 16/4/1
f 17/2/1 18/5/1 19/6/1 20/3/1
f 21/1/1 22/2/1 23/3/1 24/4/1
f 25/2/1 26/5/1 27/6/1 28/3/1
f 29/1/1 30/2/1 31/3/1 32/4/1

